<svg width="75" height="66" viewBox="0 0 75 66" fill="none" xmlns="http://www.w3.org/2000/svg">
<path d="M0.683838 6.21552C0.683838 4.77811 1.1732 3.39957 2.04426 2.38317C2.91532 1.36677 4.09673 0.795759 5.3286 0.795759H70.3553C71.5872 0.795759 72.7686 1.36677 73.6397 2.38317C74.5107 3.39957 75.0001 4.77811 75.0001 6.21552C75.0001 7.65293 74.5107 9.03147 73.6397 10.0479C72.7686 11.0643 71.5872 11.6353 70.3553 11.6353H5.3286C4.09673 11.6353 2.91532 11.0643 2.04426 10.0479C1.1732 9.03147 0.683838 7.65293 0.683838 6.21552ZM0.683838 33.3143C0.683838 31.8769 1.1732 30.4984 2.04426 29.482C2.91532 28.4656 4.09673 27.8946 5.3286 27.8946H70.3553C71.5872 27.8946 72.7686 28.4656 73.6397 29.482C74.5107 30.4984 75.0001 31.8769 75.0001 33.3143C75.0001 34.7517 74.5107 36.1303 73.6397 37.1467C72.7686 38.1631 71.5872 38.7341 70.3553 38.7341H5.3286C4.09673 38.7341 2.91532 38.1631 2.04426 37.1467C1.1732 36.1303 0.683838 34.7517 0.683838 33.3143ZM0.683838 60.4131C0.683838 58.9757 1.1732 57.5972 2.04426 56.5808C2.91532 55.5644 4.09673 54.9934 5.3286 54.9934H70.3553C71.5872 54.9934 72.7686 55.5644 73.6397 56.5808C74.5107 57.5972 75.0001 58.9757 75.0001 60.4131C75.0001 61.8506 74.5107 63.2291 73.6397 64.2455C72.7686 65.2619 71.5872 65.8329 70.3553 65.8329H5.3286C4.09673 65.8329 2.91532 65.2619 2.04426 64.2455C1.1732 63.2291 0.683838 61.8506 0.683838 60.4131Z" fill="#DF2144"/>
</svg>
